<?xml version="1.0" encoding="UTF-8"?>
<!-- Created with Inkscape (http://www.inkscape.org/) -->
<svg width="8.129mm" height="8.4568mm" version="1.1" viewBox="0 0 8.129 8.4568" xmlns="http://www.w3.org/2000/svg" xmlns:cc="http://creativecommons.org/ns#" xmlns:dc="http://purl.org/dc/elements/1.1/" xmlns:rdf="http://www.w3.org/1999/02/22-rdf-syntax-ns#">
 <metadata>
  <rdf:RDF>
   <cc:Work rdf:about="">
    <dc:format>image/svg+xml</dc:format>
    <dc:type rdf:resource="http://purl.org/dc/dcmitype/StillImage"/>
    <dc:title/>
   </cc:Work>
  </rdf:RDF>
 </metadata>
 <g transform="translate(38.838 -134.78)">
  <g transform="matrix(.14572 0 0 .14572 -58.582 123.66)" fill="#efd292">
   <path d="m163.38 76.262c-15.404-3e-6 -27.892 9.3393-27.892 14.945 0 1.9553 1.5233 6.8756 4.1558 12.452 0 0-3.6791 28.52 0 29.506 2.0204 0.54137 12.277 1.08 23.736 1.1307 11.459-0.0507 21.716-0.58931 23.736-1.1307 3.6791-0.98581 0-29.506 0-29.506 2.6325-5.5763 4.1558-10.497 4.1558-12.452 0-5.6056-12.488-14.945-27.892-14.945zm1e-3 15.847c2.4542 0 4.9366 0.63482 6.9117 2.1435 3.0577 2.3357 4.1979 6.1594 4.8012 9.6878 0.17624 1.0307 0.29466 2.0454 0.38086 3.0174 1.4977 0.41835 2.5916 1.7857 2.5916 3.4205v11.319c0 1.9693-1.5855 3.5548-3.5548 3.5548h-22.263c-1.9693 0-3.5548-1.5855-3.5548-3.5548v-11.319c0-1.6345 1.0937-3.0014 2.5911-3.42 0.0862-0.97208 0.20509-1.9871 0.38137-3.0179 0.60339-3.5284 1.743-7.3521 4.8007-9.6878 1.9751-1.5087 4.4602-2.1435 6.9143-2.1435zm0 4.3646c-1.6532 0-3.2788 0.49558-4.2638 1.248-1.5034 1.1484-2.6278 3.9094-3.1486 6.9551-0.12987 0.76023-0.2092 1.4692-0.262 2.1466h15.347c-0.0527-0.67745-0.1325-1.3864-0.26251-2.1466-0.52085-3.0457-1.6447-5.8067-3.1481-6.9551-0.985-0.75241-2.6086-1.248-4.2618-1.248z" fill="#efd292" style="paint-order:stroke fill markers"/>
  </g>
 </g>
</svg>
