<?xml version="1.0" encoding="UTF-8"?>
<!-- Created with Inkscape (http://www.inkscape.org/) -->
<svg width="56.669mm" height="22.505mm" version="1.1" viewBox="0 0 56.669 22.505" xmlns="http://www.w3.org/2000/svg" xmlns:cc="http://creativecommons.org/ns#" xmlns:dc="http://purl.org/dc/elements/1.1/" xmlns:rdf="http://www.w3.org/1999/02/22-rdf-syntax-ns#">
 <metadata>
  <rdf:RDF>
   <cc:Work rdf:about="">
    <dc:format>image/svg+xml</dc:format>
    <dc:type rdf:resource="http://purl.org/dc/dcmitype/StillImage"/>
    <dc:title/>
   </cc:Work>
  </rdf:RDF>
 </metadata>
 <g transform="translate(73.692 -159.5)">
  <g transform="matrix(.38779 0 0 .38779 -88.372 86.719)" fill="#fff" fill-opacity=".063966">
   <g transform="translate(-97.631 114.83)">
    <path transform="scale(.26458)" d="m617.5 275.38c-58.221-1e-5 -105.42 35.298-105.42 56.484 0 7.39 5.7574 25.987 15.707 47.062 0 0-13.905 107.79 0 111.52 7.6363 2.0461 46.4 4.0819 89.711 4.2734 43.311-0.19162 82.075-2.2273 89.711-4.2734 13.905-3.7259 0-111.52 0-111.52 9.9497-21.076 15.707-39.672 15.707-47.062 0-21.186-47.197-56.484-105.42-56.484zm4e-3 59.895c9.2756 0 18.658 2.3993 26.123 8.1016 11.557 8.8278 15.866 23.28 18.146 36.615 0.6661 3.8954 1.1137 7.7309 1.4394 11.404 5.6606 1.5812 9.7949 6.7491 9.7949 12.928v42.779c0 7.443-5.9925 13.436-13.436 13.436h-84.145c-7.443 0-13.436-5.9925-13.436-13.436v-42.779c0-6.1778 4.1336-11.344 9.793-12.926 0.32587-3.674 0.77515-7.5102 1.4414-11.406 2.2805-13.336 6.5879-27.787 18.145-36.615 7.465-5.7023 16.857-8.1016 26.133-8.1016zm0 16.496c-6.2482 0-12.392 1.873-16.115 4.7168-5.6823 4.3405-9.9319 14.776-11.9 26.287-0.49085 2.8733-0.79067 5.5529-0.99023 8.1133h58.004c-0.19933-2.5604-0.50081-5.24-0.99218-8.1133-1.9686-11.511-6.2161-21.947-11.898-26.287-3.7228-2.8438-9.8592-4.7168-16.107-4.7168z" fill="#fff" fill-opacity=".063966" style="paint-order:stroke fill markers"/>
   </g>
   <g transform="translate(0 -3.2775)">
    <g transform="matrix(1.721 0 0 1.721 -141.74 43.855)" stroke-width=".81107">
     <g fill="#fff" shape-rendering="auto">
      <path transform="scale(.26458)" d="m594.87 355.2c-3.787 0-7.2983 0.83676-10.326 2.5762-2.8952 1.6405-5.3288 3.9988-7.2129 6.916l-8e-3 8e-3v8e-3c-1.8275 2.8631-3.1387 6.2259-3.9942 10.047-0.8508 3.8003-1.2617 7.9304-1.2617 12.393 0 4.4622 0.41091 8.5942 1.2617 12.395v0.016c0.85599 3.7663 2.1645 7.1167 3.9727 10.01l0.0215 0.0371 0.0234 0.0391c1.8908 2.8667 4.3256 5.1884 7.2129 6.8203l0.0137 8e-3 0.0156 8e-3c3.0221 1.6718 6.5139 2.4648 10.283 2.4648 3.7668 0 7.2409-0.79567 10.225-2.4805 2.9434-1.6324 5.4006-3.9708 7.248-6.8652 1.8754-2.9079 3.1897-6.2925 3.9941-10.076 0.84775-3.7948 1.2617-7.9168 1.2617-12.371 0-4.4436-0.41032-8.5566-1.2539-12.344v-6e-3c-0.80175-3.8333-2.125-7.223-4.0156-10.1-1.8358-2.9244-4.2782-5.2821-7.2129-6.916-2.9835-1.7425-6.4726-2.584-10.246-2.584zm0 12.902h2e-3c1.5838 3.1e-4 2.5917 0.3559 3.4375 0.99023l0.0234 0.0137 0.0234 0.0156c1.0153 0.73523 1.8995 1.7877 2.6504 3.373l6e-3 0.0215 8e-3 0.0156c0.76199 1.5663 1.3687 3.5821 1.75 6.0606 0.38959 2.5324 0.58985 5.3854 0.58985 8.5547 0 3.1693-0.20037 6.032-0.58985 8.5644-0.38128 2.4784-0.98801 4.4942-1.75 6.0606-0.74256 1.5264-1.6213 2.5653-2.6504 3.3144-2e-3 1e-3 -6e-3 -1e-3 -6e-3 0-0.84389 0.60125-1.8833 0.95899-3.4922 0.95899-1.5829 0-2.6498-0.36229-3.5586-0.97461-0.9724-0.7431-1.8403-1.7701-2.584-3.2988-0.77091-1.5846-1.4061-3.6255-1.8379-6.1133-9.4e-4 -4e-3 9.5e-4 -8e-3 0-0.0156-0.38365-2.5176-0.58203-5.3514-0.58203-8.4961 0-3.1473 0.19766-5.9768 0.58203-8.4961 1e-3 -8e-3 8e-3 -8e-3 8e-3 -0.0156 0.43181-2.4866 1.0594-4.5194 1.8301-6.1035l8e-3 -0.0156 8e-3 -0.0215c0.75647-1.597 1.6336-2.6512 2.5996-3.3808 0.9134-0.65473 1.9546-1.0114 3.5254-1.0117z" color="#000000" color-rendering="auto" dominant-baseline="auto" image-rendering="auto" solid-color="#000000" style="font-feature-settings:normal;font-variant-alternates:normal;font-variant-caps:normal;font-variant-ligatures:normal;font-variant-numeric:normal;font-variant-position:normal;isolation:auto;mix-blend-mode:normal;shape-padding:0;text-decoration-color:#000000;text-decoration-line:none;text-decoration-style:solid;text-indent:0;text-orientation:mixed;text-transform:none;white-space:normal"/>
      <path transform="scale(.26458)" d="m636.41 356.27-0.0586 0.18555h-6.002l-0.73633 2.3184c-1.2638 3.9492-2.5314 7.9558-3.7949 12.01v8e-3l-8e-3 0.0137c-1.218 4.0246-2.4308 8.2573-3.6465 12.697l-8e-3 0.0234-8e-3 0.0137c-1.1611 4.4333-2.3462 9.1308-3.5586 14.086-1.221 4.9901-2.4162 10.363-3.5801 16.129l-0.80469 4.002h13.73l0.48828-2.7539c0.41965-2.3604 0.84212-4.6982 1.2617-7.0059 0.25399-1.3977 0.56203-2.7952 0.85547-4.1934h11.709c0.27363 1.3976 0.55844 2.7959 0.8125 4.1934l6e-3 0.0371 8e-3 0.0391c0.46707 2.2835 0.90682 4.5948 1.3223 6.9316l0.49414 2.752h13.996l-0.84961-4.0293c-1.2127-5.7473-2.4226-11.099-3.6387-16.07l-8e-3 -0.0312c-1.1623-4.9645-2.3541-9.672-3.5723-14.121-1.161-4.4305-2.3766-8.6574-3.6465-12.682l-0.0156-0.0527c-1.2097-4.0487-2.4426-8.049-3.7051-11.994l-0.74609-2.3203h-6.2363zm0 23.631c0.18407 0.66233 0.38668 1.3131 0.56836 1.9766 0.83214 3.0391 1.5768 6.1975 2.334 9.3398h-5.8613c0.78247-3.1418 1.5584-6.3005 2.3906-9.3398 0.1818-0.66339 0.3843-1.3144 0.56836-1.9766z" color="#000000" color-rendering="auto" dominant-baseline="auto" image-rendering="auto" solid-color="#000000" style="font-feature-settings:normal;font-variant-alternates:normal;font-variant-caps:normal;font-variant-ligatures:normal;font-variant-numeric:normal;font-variant-position:normal;isolation:auto;mix-blend-mode:normal;shape-padding:0;text-decoration-color:#000000;text-decoration-line:none;text-decoration-style:solid;text-indent:0;text-orientation:mixed;text-transform:none;white-space:normal"/>
      <path d="m144.11 94.313v16.219h8.209v-3.3711h-4.5684v-12.848z" color="#000000" color-rendering="auto" dominant-baseline="auto" image-rendering="auto" solid-color="#000000" style="font-feature-settings:normal;font-variant-alternates:normal;font-variant-caps:normal;font-variant-ligatures:normal;font-variant-numeric:normal;font-variant-position:normal;isolation:auto;mix-blend-mode:normal;shape-padding:0;text-decoration-color:#000000;text-decoration-line:none;text-decoration-style:solid;text-indent:0;text-orientation:mixed;text-transform:none;white-space:normal"/>
      <path d="m174.55 94.313v16.219h3.6426v-6.7363h4.0879v-3.3301h-4.0879v-2.7812h4.6094v-3.3711z" color="#000000" color-rendering="auto" dominant-baseline="auto" image-rendering="auto" solid-color="#000000" style="font-feature-settings:normal;font-variant-alternates:normal;font-variant-caps:normal;font-variant-ligatures:normal;font-variant-numeric:normal;font-variant-position:normal;isolation:auto;mix-blend-mode:normal;shape-padding:0;text-decoration-color:#000000;text-decoration-line:none;text-decoration-style:solid;text-indent:0;text-orientation:mixed;text-transform:none;white-space:normal"/>
     </g>
     <text x="156.04782" y="260.73276" fill="#ffffff" font-family="sans-serif" font-size="12.341px" letter-spacing="0px" stroke-width=".25023" word-spacing="0px" style="line-height:1.25" xml:space="preserve"><tspan x="156.04782" y="271.99149" fill="#ffffff" fill-opacity=".063966" stroke-width=".25023"/></text>
    </g>
    <text x="175.61719" y="212.05904" fill="#ffffff" font-family="sans-serif" font-size="9.2584px" letter-spacing="0px" stroke-width=".23146" word-spacing="0px" style="line-height:1.25" xml:space="preserve"><tspan x="175.61719" y="212.05904" fill="#ffffff" fill-opacity=".063966" font-family="sans-serif" font-weight="bold" stroke-width=".23146">©</tspan></text>
   </g>
  </g>
 </g>
</svg>
