<?xml version="1.0" encoding="UTF-8" standalone="no"?>
<!-- Created with Inkscape (http://www.inkscape.org/) -->

<svg
   xmlns:dc="http://purl.org/dc/elements/1.1/"
   xmlns:cc="http://creativecommons.org/ns#"
   xmlns:rdf="http://www.w3.org/1999/02/22-rdf-syntax-ns#"
   xmlns:svg="http://www.w3.org/2000/svg"
   xmlns="http://www.w3.org/2000/svg"
   xmlns:xlink="http://www.w3.org/1999/xlink"
   xmlns:sodipodi="http://sodipodi.sourceforge.net/DTD/sodipodi-0.dtd"
   xmlns:inkscape="http://www.inkscape.org/namespaces/inkscape"
   width="38.720001mm"
   height="40mm"
   viewBox="0 0 38.720001 40"
   version="1.1"
   id="svg2761"
   inkscape:version="0.92.4 5da689c313, 2019-01-14"
   sodipodi:docname="loaf_full.svg">
  <defs
     id="defs2755">
    <linearGradient
       gradientTransform="matrix(0.58968287,0,0,0.58968287,-33.356399,312.90776)"
       inkscape:collect="always"
       xlink:href="#linearGradient1967"
       id="linearGradient2013-8"
       gradientUnits="userSpaceOnUse"
       x1="34.512093"
       y1="-92.023956"
       x2="121.09919"
       y2="-28.954102" />
    <linearGradient
       id="linearGradient1967"
       inkscape:collect="always">
      <stop
         id="stop1963"
         offset="0"
         style="stop-color:#ffd66b;stop-opacity:1" />
      <stop
         id="stop1965"
         offset="1"
         style="stop-color:#ff8b84;stop-opacity:1" />
    </linearGradient>
  </defs>
  <sodipodi:namedview
     id="base"
     pagecolor="#ffffff"
     bordercolor="#666666"
     borderopacity="1.0"
     inkscape:pageopacity="0.0"
     inkscape:pageshadow="2"
     inkscape:zoom="1.979899"
     inkscape:cx="-18.423186"
     inkscape:cy="148.22075"
     inkscape:document-units="mm"
     inkscape:current-layer="layer1"
     showgrid="false"
     inkscape:window-width="2500"
     inkscape:window-height="1044"
     inkscape:window-x="1956"
     inkscape:window-y="36"
     inkscape:window-maximized="1" />
  <metadata
     id="metadata2758">
    <rdf:RDF>
      <cc:Work
         rdf:about="">
        <dc:format>image/svg+xml</dc:format>
        <dc:type
           rdf:resource="http://purl.org/dc/dcmitype/StillImage" />
        <dc:title></dc:title>
      </cc:Work>
    </rdf:RDF>
  </metadata>
  <g
     inkscape:label="Layer 1"
     inkscape:groupmode="layer"
     id="layer1"
     transform="translate(0,-257)">
    <path
       style="color:#000000;font-style:normal;font-variant:normal;font-weight:normal;font-stretch:normal;font-size:medium;line-height:normal;font-family:sans-serif;font-variant-ligatures:normal;font-variant-position:normal;font-variant-caps:normal;font-variant-numeric:normal;font-variant-alternates:normal;font-feature-settings:normal;text-indent:0;text-align:start;text-decoration:none;text-decoration-line:none;text-decoration-style:solid;text-decoration-color:#000000;letter-spacing:normal;word-spacing:normal;text-transform:none;writing-mode:lr-tb;direction:ltr;text-orientation:mixed;dominant-baseline:auto;baseline-shift:baseline;text-anchor:start;white-space:normal;shape-padding:0;clip-rule:nonzero;display:inline;overflow:visible;visibility:visible;opacity:1;isolation:auto;mix-blend-mode:normal;color-interpolation:sRGB;color-interpolation-filters:linearRGB;solid-color:#000000;solid-opacity:1;vector-effect:none;fill:url(#linearGradient2013-8);fill-opacity:1;fill-rule:nonzero;stroke:none;stroke-width:5.82305098;stroke-linecap:butt;stroke-linejoin:bevel;stroke-miterlimit:4;stroke-dasharray:none;stroke-dashoffset:0;stroke-opacity:1;paint-order:stroke fill markers;color-rendering:auto;image-rendering:auto;shape-rendering:auto;text-rendering:auto;enable-background:accumulate"
       d="m 15.623385,257.27111 c -9.33e-4,1.9e-4 0,-1.8e-4 0,0 -1.203796,0.17543 -2.362056,0.42986 -3.468744,0.74906 -2.2131299,0.63851 -4.2147489,1.53518 -5.9278459,2.56535 -1.284854,0.77276 -2.409645,1.61878 -3.356209,2.53966 -0.315397,0.30669 -0.612754,0.62146 -0.887155,0.94514 -0.274962,0.32348 -0.534371,0.65803 -0.771634,1.00615 -0.23763599,0.34837 -0.45101099,0.70806 -0.63004699,1.08977 -3.74e-4,8.1e-4 3.1e-4,0 0,0 -0.357699,0.76274 -0.58164999965,1.60311 -0.58164999965,2.55565 0,1.3325 0.32348399965,2.35465 0.78755899965,3.77412 0.38506999,1.17749 0.97847699,2.57556 1.61381199,3.99267 -0.08585,0.67994 -0.502022,3.87534 -0.75546,7.87285 -0.139968,2.20075 -0.218351,4.42557 -0.102021,6.3169 0.05598,0.94545 0.144946,1.7931 0.398756,2.67466 0.126906,0.44043 0.285537,0.90183 0.639627,1.43377 0.353966,0.53189 1.016176,1.21717 2.028556,1.48841 0.776114,0.20778 1.33487,0.24136 2.234218,0.32161 0.899348,0.0809 2.005415,0.15304 3.2854159,0.21524 0.185381,0.0187 0.932132,0.0187 1.202241,0.0249 0,0 5.350924,0.16299 8.027195,0.16299 2.676272,0 8.027192,-0.16299 8.027192,-0.16299 0.26998,-0.0187 1.01704,-0.0187 1.20218,-0.0249 1.28006,-0.0622 2.38614,-0.13499 3.28548,-0.21524 0.89935,-0.0809 1.45811,-0.11383 2.23415,-0.32161 1.01245,-0.27124 1.67459,-0.95658 2.02862,-1.48841 0.35397,-0.53188 0.5126,-0.99347 0.63963,-1.43377 0.25318,-0.88156 0.34277,-1.72921 0.39875,-2.67466 0.11509,-1.89133 0.0373,-4.11615 -0.10201,-6.3169 -0.25381,-3.99751 -0.66956,-7.19291 -0.75552,-7.87285 0.63533,-1.41711 1.22886,-2.81518 1.61387,-3.99267 0.46408,-1.41947 0.78756,-2.44162 0.78756,-3.77412 0,-0.95465 -0.22209,-1.79471 -0.58165,-2.55894 -0.17916,-0.38197 -0.39253,-0.74166 -0.63005,-1.08977 -0.23764,-0.34837 -0.49705,-0.68243 -0.77163,-1.00616 -0.27434,-0.32348 -0.5717,-0.63832 -0.88716,-0.94507 -0.63055,-0.61338 -1.34109,-1.19515 -2.12492,-1.7424 -8e-4,-5e-4 0,4.9e-4 0,0 -0.39129,-0.2731 -0.80056,-0.53997 -1.22799,-0.79733 -8.1e-4,-4.9e-4 0,5e-4 0,0 -0.42737,-0.25692 -0.87204,-0.50699 -1.33419,-0.74575 -8e-4,-5e-4 0,3.1e-4 0,0 -0.92516,-0.47714 -1.91739,-0.91596 -2.96728,-1.29549 -8.7e-4,-3.7e-4 0,3.1e-4 0,0 -0.52566,-0.18974 -1.06377,-0.36455 -1.61699,-0.5238 -1.10675,-0.31913 -2.26494,-0.57418 -3.4688,-0.74905 -9.7e-4,-1.2e-4 0,1.9e-4 0,0 -1.20286,-0.17481 -2.45095,-0.26999 -3.742521,-0.26812 -1.2917,0.002 -2.539851,0.097 -3.742713,0.27123 z m 3.732321,5.55192 c 3.953535,0 7.602935,1.23229 10.129595,2.7518 0.63173,0.37947 1.19247,0.77624 1.66519,1.16367 0.47217,0.38755 0.85487,0.76573 1.13798,1.09953 0.14184,0.16672 0.25133,0.32162 0.33406,0.45662 0.16548,0.26874 0.22955,0.45349 0.25381,0.49144 0.0186,0.0187 0.0186,0 0.0186,-0.0623 0,-0.17978 -0.12815,0.82265 -0.5014,1.96429 -0.37325,1.14147 -0.94396,2.59286 -1.67161,4.13407 l -0.25381,1.61698 c 0,0 0.53064,4.14134 0.79403,8.29401 0.13189,2.07634 0.18663,4.16467 0.10015,5.59043 -0.0186,0.24074 -0.0373,0.28305 -0.0622,0.479 -0.77637,0.0691 -1.7959,0.13313 -2.99939,0.19596 -1.33356,0.0659 -5.1042,0.11882 -8.943337,0.15801 -3.839317,-0.0373 -7.609648,-0.0921 -8.943335,-0.15801 -1.2034859,-0.0622 -2.2230199,-0.12814 -2.9993819,-0.19596 -0.02488,-0.19595 -0.04977,-0.23826 -0.06221,-0.479 -0.0871,-1.42576 -0.0311,-3.51409 0.100155,-5.59043 0.263142,-4.15267 0.793967,-8.29401 0.793967,-8.29401 l -0.25381,-1.61698 c -0.727653,-1.54121 -1.298477,-2.9926 -1.671604,-4.13407 -0.373251,-1.14164 -0.501401,-2.14382 -0.501401,-1.96429 0,0.0641 0,0.0809 0.01866,0.0623 0.02488,-0.0373 0.08896,-0.22333 0.253811,-0.49144 0.08211,-0.135 0.192846,-0.2899 0.334059,-0.45662 0.283049,-0.33343 0.665942,-0.71272 1.13798,-1.09953 0.472162,-0.38756 1.033469,-0.78396 1.665197,-1.16367 2.5264719,-1.51951 6.1761799,-2.7518 10.1295269,-2.7518 z"
       id="path1717-3-7"
       inkscape:connector-curvature="0"
       sodipodi:nodetypes="cccccccccsccccccccccsccccccccccsccccccccccccccccccccccscccccccccccccccscccccscc" />
  </g>
</svg>
