<?xml version="1.0" encoding="UTF-8" standalone="no"?>
<!-- Created with Inkscape (http://www.inkscape.org/) -->

<svg
   xmlns:dc="http://purl.org/dc/elements/1.1/"
   xmlns:cc="http://creativecommons.org/ns#"
   xmlns:rdf="http://www.w3.org/1999/02/22-rdf-syntax-ns#"
   xmlns:svg="http://www.w3.org/2000/svg"
   xmlns="http://www.w3.org/2000/svg"
   xmlns:xlink="http://www.w3.org/1999/xlink"
   xmlns:sodipodi="http://sodipodi.sourceforge.net/DTD/sodipodi-0.dtd"
   xmlns:inkscape="http://www.inkscape.org/namespaces/inkscape"
   width="500"
   height="261.69299"
   viewBox="0 0 132.29166 69.239606"
   version="1.1"
   id="svg2070"
   inkscape:version="0.92.4 5da689c313, 2019-01-14"
   sodipodi:docname="loaf_newlogo.svg">
  <defs
     id="defs2064">
    <linearGradient
       inkscape:collect="always"
       xlink:href="#linearGradient1967"
       id="linearGradient1983"
       x1="-61.516853"
       y1="-95.279175"
       x2="219.56955"
       y2="-13.084911"
       gradientUnits="userSpaceOnUse" />
    <linearGradient
       id="linearGradient1967"
       inkscape:collect="always">
      <stop
         id="stop1963"
         offset="0"
         style="stop-color:#ffd66b;stop-opacity:1" />
      <stop
         id="stop1965"
         offset="1"
         style="stop-color:#ff8b84;stop-opacity:1" />
    </linearGradient>
    <linearGradient
       inkscape:collect="always"
       xlink:href="#linearGradient1967"
       id="linearGradient2013"
       gradientUnits="userSpaceOnUse"
       x1="34.512093"
       y1="-92.023956"
       x2="121.09919"
       y2="-28.954102" />
  </defs>
  <sodipodi:namedview
     id="base"
     pagecolor="#ffffff"
     bordercolor="#666666"
     borderopacity="1.0"
     inkscape:pageopacity="0.0"
     inkscape:pageshadow="2"
     inkscape:zoom="0.7"
     inkscape:cx="148.48907"
     inkscape:cy="334.19614"
     inkscape:document-units="px"
     inkscape:current-layer="layer1"
     showgrid="false"
     units="px"
     inkscape:window-width="2500"
     inkscape:window-height="1044"
     inkscape:window-x="1956"
     inkscape:window-y="36"
     inkscape:window-maximized="1" />
  <metadata
     id="metadata2067">
    <rdf:RDF>
      <cc:Work
         rdf:about="">
        <dc:format>image/svg+xml</dc:format>
        <dc:type
           rdf:resource="http://purl.org/dc/dcmitype/StillImage" />
        <dc:title></dc:title>
      </cc:Work>
    </rdf:RDF>
  </metadata>
  <g
     inkscape:label="Layer 1"
     inkscape:groupmode="layer"
     id="layer1"
     transform="translate(0,-227.76037)">
    <g
       style="fill:url(#linearGradient1983);fill-opacity:1"
       id="g1890"
       transform="matrix(0.75882044,0,0,0.75882044,-42.920782,299.703)">
      <path
         style="color:#000000;font-style:normal;font-variant:normal;font-weight:normal;font-stretch:normal;font-size:medium;line-height:normal;font-family:sans-serif;font-variant-ligatures:normal;font-variant-position:normal;font-variant-caps:normal;font-variant-numeric:normal;font-variant-alternates:normal;font-feature-settings:normal;text-indent:0;text-align:start;text-decoration:none;text-decoration-line:none;text-decoration-style:solid;text-decoration-color:#000000;letter-spacing:normal;word-spacing:normal;text-transform:none;writing-mode:lr-tb;direction:ltr;text-orientation:mixed;dominant-baseline:auto;baseline-shift:baseline;text-anchor:start;white-space:normal;shape-padding:0;clip-rule:nonzero;display:inline;overflow:visible;visibility:visible;opacity:1;isolation:auto;mix-blend-mode:normal;color-interpolation:sRGB;color-interpolation-filters:linearRGB;solid-color:#000000;solid-opacity:1;vector-effect:none;fill:url(#linearGradient2013);fill-opacity:1;fill-rule:nonzero;stroke:none;stroke-width:9.87488556;stroke-linecap:butt;stroke-linejoin:bevel;stroke-miterlimit:4;stroke-dasharray:none;stroke-dashoffset:0;stroke-opacity:1;paint-order:stroke fill markers;color-rendering:auto;image-rendering:auto;shape-rendering:auto;text-rendering:auto;enable-background:accumulate"
         d="m 89.392578,-94.808594 c -8.699972,0 -16.457289,2.583822 -22.267578,6.078125 -2.905144,1.747152 -5.334673,3.714423 -7.197266,5.910157 -1.862592,2.195733 -3.365234,4.65994 -3.365234,7.894531 0,2.259857 0.548991,3.995083 1.335938,6.402343 0.652831,1.997004 1.655147,4.364279 2.732421,6.767579 -0.145511,1.153141 -0.851437,6.574459 -1.28125,13.353515 -0.236625,3.732086 -0.370491,7.503749 -0.173828,10.710938 0.09833,1.603594 0.249665,3.042363 0.679688,4.537109 0.215011,0.747373 0.483326,1.527616 1.083984,2.429688 0.600658,0.902071 1.722564,2.065344 3.439453,2.52539 1.316147,0.352666 2.26204,0.410479 3.78711,0.546875 1.525069,0.136397 3.405618,0.258643 5.576172,0.365235 4.341106,0.213183 23.459597,0.361055 29.260132,0.386718 l 0.043,-9.875 c -5.658863,-0.02504 -24.661757,-0.170858 -28.818726,-0.375 -2.040885,-0.100224 -3.77143,-0.215778 -5.08789,-0.332031 -0.03879,-0.332293 -0.08044,-0.406311 -0.105469,-0.814453 -0.148243,-2.417548 -0.05137,-5.959354 0.171875,-9.480469 0.446499,-7.042228 1.347656,-14.064453 1.347656,-14.064453 l -0.43164,-2.740234 c -1.233867,-2.613642 -2.205062,-5.073951 -2.837891,-7.009766 -0.632828,-1.935815 -0.845703,-3.638641 -0.845703,-3.333984 0,0.431791 0.05931,-0.3739 1.019531,-1.50586 0.960217,-1.13196 2.61552,-2.549517 4.757813,-3.83789 4.284586,-2.576747 10.473406,-4.664063 17.177734,-4.664063 6.704269,0 12.89316,2.087316 17.17773,4.664063 2.14229,1.288373 3.79565,2.70593 4.75586,3.83789 0.96022,1.131961 1.01953,1.937651 1.01953,1.50586 h 9.875 c 0,-3.234591 -1.50069,-5.698798 -3.36328,-7.894531 -1.86259,-2.195734 -4.29213,-4.163005 -7.19726,-5.910157 -5.81028,-3.494303 -13.567653,-6.078125 -22.26758,-6.078125 z"
         id="path1717-3"
         inkscape:connector-curvature="0"
         sodipodi:nodetypes="ssssscsssssssccscccccsscssccccscss" />
      <g
         aria-label="loaf"
         style="font-style:normal;font-variant:normal;font-weight:normal;font-stretch:normal;font-size:72.62627411px;line-height:1.25;font-family:FontAwesome;-inkscape-font-specification:FontAwesome;letter-spacing:0px;word-spacing:0px;fill:#ffffff;fill-opacity:1;stroke:none;stroke-width:1.81565678"
         id="text1885"
         transform="matrix(1.0992847,0,0,1.0992847,-11.810289,10.444685)">
        <path
           d="m 121.43981,-12.741691 c 2.17878,0 4.13969,-0.653637 5.44697,-1.379899 l -1.74303,-6.100607 c -0.36313,0.07263 -0.94414,0.290505 -1.52516,0.290505 -1.23464,0 -1.74303,-0.871516 -1.74303,-2.106162 v -46.553442 h -8.93303 v 46.916573 c 0,5.446971 3.19556,8.933032 8.49728,8.933032 z"
           style="font-style:normal;font-variant:normal;font-weight:500;font-stretch:ultra-condensed;font-family:'Fira Sans Compressed';-inkscape-font-specification:'Fira Sans Compressed Medium Ultra-Condensed';fill:#ffffff;fill-opacity:1;stroke-width:1.81565678"
           id="path2015"
           inkscape:connector-curvature="0"
           sodipodi:nodetypes="sccssccss" />
        <path
           d="m 144.96989,-53.267152 c -9.51404,0 -15.32415,7.044749 -15.32415,20.190104 0,13.217982 5.81011,20.335357 15.32415,20.335357 9.51404,0 15.32414,-7.553133 15.32414,-20.335357 0,-13.653739 -5.8101,-20.190104 -15.32414,-20.190104 z m 0,6.754243 c 3.99444,0 6.02798,3.413435 6.02798,13.435861 0,10.022426 -2.03354,13.508487 -6.02798,13.508487 -3.99445,0 -6.02798,-3.413435 -6.02798,-13.508487 0,-9.949799 2.03353,-13.435861 6.02798,-13.435861 z"
           style="font-style:normal;font-variant:normal;font-weight:500;font-stretch:ultra-condensed;font-family:'Fira Sans Compressed';-inkscape-font-specification:'Fira Sans Compressed Medium Ultra-Condensed';fill:#ffffff;fill-opacity:1;stroke-width:1.81565678"
           id="path2017"
           inkscape:connector-curvature="0" />
        <path
           d="m 190.86904,-23.127248 v -17.35768 c 0,-8.352021 -3.99444,-12.782224 -12.63697,-12.782224 -3.77656,0 -8.13414,0.944142 -12.05596,2.687172 l 2.10616,5.810102 c 3.12293,-1.16202 5.8101,-1.888283 8.42465,-1.888283 3.77657,0 5.37434,1.74303 5.37434,6.608991 v 2.687172 h -2.97767 c -9.87718,0 -15.10627,4.502829 -15.10627,12.782224 0,7.117375 3.99445,11.838083 10.38556,11.838083 3.70394,0 7.04475,-1.597778 9.44141,-5.519597 1.16203,3.558688 3.63132,4.938587 7.40788,5.374344 l 1.81566,-5.955354 c -1.52515,-0.726263 -2.17879,-1.670404 -2.17879,-4.28495 z m -14.01687,3.921819 c -2.46929,0 -3.92182,-1.96091 -3.92182,-6.027981 0,-4.648082 2.17879,-6.82687 7.04475,-6.82687 h 2.10616 v 8.061516 c -1.16202,3.12293 -2.97767,4.793335 -5.22909,4.793335 z"
           style="font-style:normal;font-variant:normal;font-weight:500;font-stretch:ultra-condensed;font-family:'Fira Sans Compressed';-inkscape-font-specification:'Fira Sans Compressed Medium Ultra-Condensed';fill:#ffffff;fill-opacity:1;stroke-width:1.81565678"
           id="path2019"
           inkscape:connector-curvature="0" />
        <path
           d="m 213.38238,-61.837052 c 1.52515,0 3.12293,0.363131 4.93858,1.234646 l 2.4693,-5.810102 c -2.4693,-1.307273 -5.22909,-2.178788 -8.5699,-2.178788 -7.77101,0 -11.76546,4.720708 -11.76546,11.474951 v 4.865961 h -4.79333 v 6.463738 h 4.79333 v 31.955561 h 8.93303 v -31.955561 h 6.31849 l 1.01677,-6.463738 h -7.33526 v -5.156466 c 0,-2.977677 1.23465,-4.430202 3.99445,-4.430202 z"
           style="font-style:normal;font-variant:normal;font-weight:500;font-stretch:ultra-condensed;font-family:'Fira Sans Compressed';-inkscape-font-specification:'Fira Sans Compressed Medium Ultra-Condensed';fill:#ffffff;fill-opacity:1;stroke-width:1.81565678"
           id="path2021"
           inkscape:connector-curvature="0" />
      </g>
    </g>
  </g>
</svg>
